{"title":"Samantha Jade ft. Pitbull - Shake That (2015.Pop)","uid":12405039,"size":92327756,"categoryP":"video","categoryS":"music_videos","magnet":"?xt=urn:btih:e8ab4648a27c4f3e3c014ce6486cdd296d28c336&amp;dn=Samantha+Jade+ft.+Pitbull+-+Shake+That+%282015.Pop%29&amp;tr=udp%3A%2F%2Ftracker.openbittorrent.com%3A80&amp;tr=udp%3A%2F%2Fopen.demonii.com%3A1337&amp;tr=udp%3A%2F%2Ftracker.coppersurfer.tk%3A6969&amp;tr=udp%3A%2F%2Fexodus.desync.com%3A6969","seeders":0,"leechers":0,"uploader":"MeRaDil","files":1,"time":1442080021,"description":"SAMANTHA JADE ft.PITBULL - SHAKE THAT\n\n &lt;a href=&quot;\nhttp://gifyu.com/images/SamanthaJade-1.png&quot; rel=&quot;nofollow&quot; target=&quot;_NEW&quot;&gt;\nhttp://gifyu.com/images/SamanthaJade-1.png&lt;/a&gt;\n &lt;a href=&quot;\nhttp://gifyu.com/images/SamanthaJade-2.png&quot; rel=&quot;nofollow&quot; target=&quot;_NEW&quot;&gt;\nhttp://gifyu.com/images/SamanthaJade-2.png&lt;/a&gt;\n &lt;a href=&quot;\nhttp://gifyu.com/images/SamanthaJade-3.png&quot; rel=&quot;nofollow&quot; target=&quot;_NEW&quot;&gt;\nhttp://gifyu.com/images/SamanthaJade-3.png&lt;/a&gt;\n\n\nGeneral\nSamantha Jade ft. Pitbull - Shake That\nFormat                                   : MPEG-4\nFormat profile                           : Base Media\nCodec ID                                 : isom\nFile size                                : 88.1 MiB\nDuration                                 : 3mn 37s\nOverall bit rate                         : 3 389 Kbps\nMusicVid name                            : Shake That\nPerformer                                : Samantha Jade ft. Pitbull\nGenre                                    : Pop\nContentType                              : Music Video\nRecorded date                            : 2015\nCover                                    : Yes\nRating                                   : ***\nMake                                     : MeRaDil\nArtist url                               : http://www.samanthajadeofficial.com/\nRelease date                             : Australia . july 16 . 2015\nPart_ID                                  : Shake That\n &lt;a href=&quot;\nhttps://thepiratebay.vg/user/MeRaDil&quot; rel=&quot;nofollow&quot; target=&quot;_NEW&quot;&gt;\nhttps://thepiratebay.vg/user/MeRaDil&lt;/a&gt;\n\nVideo\nID                                       : 1\nFormat                                   : AVC\nFormat/Info                              : Advanced Video Codec\nFormat profile                           : &lt;a class=&quot;__cf_email__&quot; href=&quot;/cdn-cgi/l/email-protection&quot; data-cfemail=&quot;3f775658577f730b110f&quot;&gt;[email&amp;#160;protected]&lt;/a&gt;&lt;script data-cfhash='f9e31' type=&quot;text/javascript&quot;&gt;\n/* &lt;![CDATA[ */!function(){try{var t=&quot;currentScript&quot;in document?document.currentScript:function(){for(var t=document.getElementsByTagName(&quot;script&quot;),e=t.length;e--;)if(t[e].getAttribute(&quot;data-cfhash&quot;))return t[e]}();if(t&amp;&amp;t.previousSibling){var e,r,n,i,c=t.previousSibling,a=c.getAttribute(&quot;data-cfemail&quot;);if(a){for(e=&quot;&quot;,r=parseInt(a.substr(0,2),16),n=2;a.length-n;n+=2)i=parseInt(a.substr(n,2),16)^r,e+=String.fromCharCode(i);e=document.createTextNode(e),c.parentNode.replaceChild(e,c)}t.parentNode.removeChild(t);}}catch(u){}}()/* ]]&gt; */&lt;/script&gt;\nFormat settings, CABAC                   : Yes\nFormat settings, ReFrames                : 2 frames\nCodec ID                                 : avc1\nCodec ID/Info                            : Advanced Video Coding\nDuration                                 : 3mn 37s\nBit rate                                 : 3 110 Kbps\nWidth                                    : 1 920 pixels\nHeight                                   : 1 080 pixels\nDisplay aspect ratio                     : 16:9\nFrame rate mode                          : Constant\nFrame rate                               : 25.000 fps\nColor space                              : YUV\nChroma subsampling                       : 4:2:0\nBit depth                                : 8 bits\nScan type                                : Progressive\nBits/(Pixel*Frame)                       : 0.060\nStream size                              : 80.8 MiB (92%)\n\nAudio\nID                                       : 2\nFormat                                   : AAC\nFormat/Info                              : Advanced Audio Codec\nFormat profile                           : LC\nCodec ID                                 : 40\nDuration                                 : 3mn 37s\nBit rate mode                            : Constant\nBit rate                                 : 256 Kbps\nChannel(s)                               : 2 channels\nChannel positions                        : Front: L R\nSampling rate                            : 44.1 KHz\nCompression mode                         : Lossy\nStream size                              : 6.65 MiB (8%)\n\nSamantha Jade * Pop * Promo * Pitbull","torrent":{"xt":"urn:btih:e8ab4648a27c4f3e3c014ce6486cdd296d28c336","amp;dn":"Samantha+Jade+ft.+Pitbull+-+Shake+That+%282015.Pop%29","amp;tr":["udp%3A%2F%2Ftracker.openbittorrent.com%3A80","udp%3A%2F%2Fopen.demonii.com%3A1337","udp%3A%2F%2Ftracker.coppersurfer.tk%3A6969","udp%3A%2F%2Fexodus.desync.com%3A6969"],"infoHash":"e8ab4648a27c4f3e3c014ce6486cdd296d28c336","infoHashBuffer":{"type":"Buffer","data":[232,171,70,72,162,124,79,62,60,1,76,230,72,108,221,41,109,40,195,54]},"announce":[],"urlList":[]}}